<?xml version="1.0" standalone="no"?>
<!DOCTYPE svg PUBLIC "-//W3C//DTD SVG 20010904//EN"
 "http://www.w3.org/TR/2001/REC-SVG-20010904/DTD/svg10.dtd">
<svg version="1.0" xmlns="http://www.w3.org/2000/svg"
 width="100.000000pt" height="124.000000pt" viewBox="0 0 100.000000 124.000000"
 preserveAspectRatio="xMidYMid meet">

<g transform="translate(0.000000,124.000000) scale(0.100000,-0.100000)"
fill="#000000" stroke="none">
<path d="M397 1217 c-15 -5 -24 -13 -21 -19 3 -5 0 -9 -7 -7 -29 3 -41 -2 -86
-43 -60 -56 -103 -116 -96 -134 3 -9 0 -14 -8 -12 -9 2 -13 -5 -12 -20 2 -13
-1 -21 -6 -18 -12 8 -22 -20 -14 -40 4 -10 17 7 39 53 41 85 102 155 165 192
27 15 46 31 42 35 -5 4 6 5 22 1 21 -5 26 -4 16 3 -10 7 4 9 46 5 33 -3 67 -1
76 3 22 13 -119 14 -156 1z m-84 -62 c-18 -14 -51 -47 -74 -73 -23 -26 -32
-33 -21 -16 23 33 107 114 119 114 5 0 -6 -12 -24 -25z"/>
<path d="M571 1211 c-10 -7 -5 -11 18 -16 34 -7 151 -89 151 -105 0 -6 -8 -10
-17 -8 -14 2 -17 -3 -15 -22 4 -21 2 -22 -12 -11 -14 12 -16 11 -10 -5 6 -16
2 -15 -20 6 -16 14 -22 26 -15 29 8 2 8 6 -2 11 -10 7 -10 11 1 24 7 9 10 19
7 22 -8 9 -29 -35 -22 -46 9 -14 5 -13 -40 10 -93 48 -218 10 -290 -88 -38
-52 -74 -138 -81 -192 -3 -23 1 -16 11 20 48 170 147 270 266 270 97 0 163
-47 224 -161 19 -35 35 -60 35 -55 0 5 -16 38 -35 73 -26 47 -31 63 -20 63 9
0 15 9 15 23 0 18 2 19 10 7 8 -12 10 -12 10 5 1 19 2 18 21 -5 28 -33 64
-104 80 -158 10 -34 14 -40 21 -27 12 20 -9 88 -24 79 -6 -4 -8 1 -4 13 7 21
-44 106 -97 161 -44 47 -110 84 -132 75 -13 -4 -16 -3 -11 5 8 14 -3 15 -23 3z
m115 -52 c3 -6 -5 -3 -20 6 -14 10 -26 19 -26 22 0 7 39 -17 46 -28z m106
-114 c14 -26 10 -22 -46 50 -46 59 -46 59 -6 15 23 -24 46 -54 52 -65z m38
-69 c0 -12 -5 -7 -19 24 -11 24 -11 24 3 6 9 -11 16 -24 16 -30z"/>
<path d="M440 1166 c0 -31 18 -43 36 -24 19 18 8 48 -17 48 -13 0 -19 -7 -19
-24z m35 -6 c0 -7 -6 -15 -12 -17 -8 -3 -13 4 -13 17 0 13 5 20 13 18 6 -3 12
-11 12 -18z"/>
<path d="M510 1175 c0 -8 8 -15 18 -15 14 0 14 2 3 9 -11 7 -10 10 5 14 16 4
16 5 -3 6 -14 1 -23 -5 -23 -14z"/>
<path d="M590 1149 c-7 -11 -9 -23 -6 -27 3 -3 6 0 6 7 0 8 8 10 23 6 22 -7
22 -7 2 9 -20 17 -20 17 5 11 19 -5 22 -4 10 4 -21 15 -28 14 -40 -10z"/>
<path d="M355 1151 c-7 -12 12 -51 25 -51 5 0 12 5 16 12 5 7 3 8 -6 3 -11 -7
-29 9 -30 28 0 11 28 9 33 -3 3 -6 4 -5 3 2 -3 16 -32 22 -41 9z"/>
<path d="M311 1108 c0 -7 3 -20 7 -28 6 -14 9 -14 24 2 17 17 17 18 -2 28 -24
13 -30 13 -29 -2z"/>
<path d="M257 1066 c-5 -13 21 -46 35 -46 13 0 18 33 7 46 -15 18 -35 18 -42
0z m38 -7 c10 -15 -1 -23 -20 -15 -9 3 -13 10 -10 16 8 13 22 13 30 -1z"/>
<path d="M230 1037 c0 -3 12 -12 26 -22 15 -9 23 -12 20 -6 -7 11 -46 35 -46
28z"/>
<path d="M457 1022 c-8 -9 -21 -30 -27 -47 -14 -36 -5 -28 19 17 15 26 26 34
57 39 l39 6 -36 2 c-23 0 -42 -5 -52 -17z"/>
<path d="M560 1015 c7 -8 18 -15 25 -15 7 0 25 -14 39 -31 14 -17 26 -26 26
-21 0 12 -79 82 -93 82 -5 0 -4 -7 3 -15z"/>
<path d="M755 1021 c3 -5 1 -12 -5 -16 -5 -3 -10 -1 -10 4 0 6 -7 11 -15 11
-12 0 -12 -3 3 -19 15 -16 18 -17 30 -3 15 19 16 32 1 32 -5 0 -8 -4 -4 -9z"/>
<path d="M213 995 c-7 -21 4 -32 19 -17 17 17 33 15 18 -3 -7 -9 -8 -15 -2
-15 14 0 23 28 11 36 -5 3 -17 0 -26 -8 -15 -11 -16 -11 -10 5 3 9 4 17 1 17
-2 0 -7 -7 -11 -15z"/>
<path d="M767 976 c-20 -15 -22 -32 -5 -42 7 -5 8 -3 3 6 -5 8 -1 18 10 26 10
8 17 16 14 18 -2 2 -12 -1 -22 -8z"/>
<path d="M184 945 c-8 -19 1 -31 26 -38 17 -4 19 -3 9 9 -9 11 -8 14 5 14 9 0
16 5 16 11 0 5 -4 8 -9 4 -5 -3 -12 -1 -16 5 -9 15 -25 12 -31 -5z m26 -5 c0
-5 -4 -10 -10 -10 -5 0 -10 5 -10 10 0 6 5 10 10 10 6 0 10 -4 10 -10z"/>
<path d="M782 928 c-20 -20 -14 -28 21 -27 24 1 26 3 9 6 -19 4 -21 7 -11 19
14 17 -2 19 -19 2z"/>
<path d="M136 895 c4 -23 3 -26 -5 -15 -10 13 -11 13 -10 0 0 -8 4 -24 8 -35
7 -16 9 -14 14 14 4 18 2 40 -3 49 -8 13 -9 10 -4 -13z"/>
<path d="M393 908 c-15 -20 -25 -38 -20 -38 3 0 12 11 21 25 17 26 16 35 -1
13z"/>
<path d="M650 906 c0 -8 4 -17 9 -20 5 -4 7 3 4 14 -6 23 -13 26 -13 6z"/>
<path d="M480 901 c0 -6 4 -13 10 -16 6 -3 7 1 4 9 -7 18 -14 21 -14 7z"/>
<path d="M163 885 c-7 -20 -4 -22 27 -27 16 -2 25 2 26 12 0 9 -1 10 -3 2 -3
-7 -8 -10 -13 -7 -5 3 -6 13 -3 23 5 14 2 13 -11 -3 -15 -17 -17 -17 -12 -2 7
21 -2 23 -11 2z"/>
<path d="M421 858 c-5 -18 -10 -26 -10 -17 -1 19 -39 20 -63 0 -23 -20 -12
-39 19 -33 25 5 25 6 8 18 -18 13 -18 14 2 14 11 0 28 -11 37 -25 9 -14 22
-25 29 -25 6 0 4 5 -5 11 -10 5 -18 14 -18 19 0 11 60 -20 76 -39 8 -10 13
-11 18 -2 4 6 0 14 -9 17 -12 5 -13 10 -4 20 6 8 16 11 21 8 6 -4 4 4 -2 17
-17 33 -24 38 -16 13 4 -13 1 -26 -9 -34 -21 -18 -65 2 -65 29 0 25 20 38 31
20 7 -11 9 -10 9 4 0 32 -39 20 -49 -15z"/>
<path d="M762 870 c0 -8 4 -26 8 -40 6 -20 8 -21 8 -5 0 11 -3 29 -8 40 -5 12
-8 14 -8 5z"/>
<path d="M798 873 c22 -4 23 -5 5 -18 -10 -8 -13 -15 -7 -15 6 0 19 9 29 20
18 20 17 20 -16 19 -25 -1 -28 -3 -11 -6z"/>
<path d="M866 855 c-3 -9 -6 -26 -5 -38 1 -16 4 -12 10 12 10 34 6 55 -5 26z"/>
<path d="M116 805 c4 -27 8 -52 10 -54 8 -9 2 65 -7 84 -6 13 -7 4 -3 -30z"/>
<path d="M173 836 c18 -14 18 -15 -5 -19 -17 -3 -15 -5 10 -6 36 -1 35 12 -1
29 -21 10 -21 10 -4 -4z"/>
<path d="M547 823 c-4 -3 -7 -11 -7 -17 0 -6 5 -5 12 2 6 6 9 14 7 17 -3 3 -9
2 -12 -2z"/>
<path d="M796 821 c-3 -4 6 -6 21 -3 19 4 24 1 21 -9 -3 -8 -13 -13 -23 -12
-11 1 -14 -2 -8 -8 14 -14 43 1 43 22 0 13 -7 19 -24 19 -14 0 -27 -4 -30 -9z"/>
<path d="M876 799 c-8 -40 -6 -176 3 -207 3 -13 6 35 6 107 0 72 -1 131 -1
131 -1 0 -4 -14 -8 -31z"/>
<path d="M630 813 c-37 -7 -43 -18 -10 -18 17 0 32 6 35 13 2 6 3 11 2 11 -1
-1 -13 -4 -27 -6z"/>
<path d="M323 786 c1 -16 9 -32 17 -34 12 -4 13 -2 4 9 -7 8 -14 23 -17 34 -4
13 -5 9 -4 -9z"/>
<path d="M102 705 c0 -81 2 -91 8 -53 5 25 5 70 0 100 -6 46 -8 40 -8 -47z"/>
<path d="M374 783 c11 -13 29 -23 42 -23 12 0 32 -11 43 -26 11 -14 23 -25 28
-26 4 0 17 -4 28 -10 19 -9 19 -9 1 6 -10 9 -23 13 -27 10 -5 -3 -9 0 -9 7 0
6 8 9 19 6 17 -4 18 -2 8 14 -8 13 -13 15 -19 6 -7 -11 -12 -3 -10 14 1 4 -7
5 -17 2 -10 -3 -22 0 -25 5 -3 6 -16 8 -29 5 -18 -4 -20 -3 -7 7 13 10 13 11
-1 7 -9 -3 -23 0 -30 6 -7 7 -5 2 5 -10z"/>
<path d="M784 705 c0 -55 1 -76 3 -47 2 29 2 74 0 100 -2 26 -3 2 -3 -53z"/>
<path d="M153 783 c9 -2 25 -2 35 0 9 3 1 5 -18 5 -19 0 -27 -2 -17 -5z"/>
<path d="M213 705 c0 -44 2 -61 4 -37 2 23 2 59 0 80 -2 20 -4 1 -4 -43z"/>
<path d="M530 755 c0 -17 5 -25 18 -24 10 0 12 3 5 6 -14 5 -18 33 -5 33 4 0
14 -6 22 -12 12 -11 12 -10 1 5 -20 25 -41 21 -41 -8z"/>
<path d="M155 760 c18 -7 19 -8 3 -15 -29 -12 -21 -25 15 -24 26 0 29 2 12 9
-20 8 -20 8 -1 16 19 7 19 8 0 15 -10 4 -26 8 -34 8 -9 0 -7 -4 5 -9z"/>
<path d="M804 755 c-4 -9 -2 -21 4 -27 16 -16 47 -5 47 17 0 26 -42 34 -51 10z
m46 -10 c0 -8 -9 -15 -20 -15 -11 0 -20 7 -20 15 0 8 9 15 20 15 11 0 20 -7
20 -15z"/>
<path d="M893 700 c0 -36 2 -50 4 -32 2 17 2 47 0 65 -2 17 -4 3 -4 -33z"/>
<path d="M383 732 c-9 -5 -7 -13 5 -29 15 -19 19 -20 31 -7 11 13 10 16 -9 21
-16 4 -18 8 -8 14 7 5 9 9 3 9 -5 0 -15 -4 -22 -8z"/>
<path d="M353 690 c0 -25 2 -35 4 -22 2 12 2 32 0 45 -2 12 -4 2 -4 -23z"/>
<path d="M650 717 c16 -8 26 -23 28 -41 4 -31 -11 -55 -22 -37 -4 6 -2 11 3
11 6 0 11 4 11 8 0 5 -6 9 -14 9 -8 0 -15 -3 -14 -6 4 -36 -22 -41 -52 -11
-11 11 -30 20 -42 19 -21 -1 -22 -1 -3 -7 11 -4 32 -15 47 -25 17 -12 35 -16
49 -12 14 5 19 4 15 -4 -10 -15 -59 -14 -76 2 -12 10 -12 9 -1 -5 31 -42 111
-2 111 54 0 30 -23 58 -48 58 -12 0 -9 -4 8 -13z"/>
<path d="M550 714 c0 -27 60 -48 74 -25 3 4 -6 6 -21 3 -18 -3 -30 1 -40 13
-7 11 -13 14 -13 9z"/>
<path d="M817 699 c10 -10 9 -15 -5 -25 -15 -11 -13 -13 13 -11 39 3 43 40 5
45 -20 3 -22 1 -13 -9z m30 -21 c-3 -8 -6 -5 -6 6 -1 11 2 17 5 13 3 -3 4 -12
1 -19z"/>
<path d="M165 691 c29 -8 29 -9 -15 -25 -8 -3 -1 -4 15 -3 19 1 30 7 30 17 0
10 -11 16 -30 17 l-30 2 30 -8z"/>
<path d="M497 679 c7 -7 15 -10 18 -7 3 3 -2 9 -12 12 -14 6 -15 5 -6 -5z"/>
<path d="M122 634 c-1 -12 -4 -37 -7 -55 -5 -31 -5 -32 5 -9 6 13 9 38 7 55
-2 18 -4 21 -5 9z"/>
<path d="M380 641 c0 -5 -6 -11 -12 -13 -9 -2 -5 -12 11 -28 13 -14 21 -20 18
-13 -4 6 -1 14 5 16 8 3 5 6 -5 6 -14 1 -17 6 -12 21 3 11 4 20 1 20 -3 0 -6
-4 -6 -9z"/>
<path d="M164 588 c3 -26 10 -55 16 -65 9 -15 10 -13 6 15 -4 21 -2 32 7 32 8
0 8 3 2 8 -6 4 -16 18 -23 32 -10 23 -11 20 -8 -22z"/>
<path d="M821 608 c-1 -14 -5 -28 -9 -30 -4 -1 -5 -16 -1 -33 5 -22 7 -24 8
-8 0 12 5 23 10 25 6 2 6 17 1 38 -7 31 -8 32 -9 8z"/>
<path d="M225 580 c7 -55 51 -153 91 -199 35 -42 111 -91 138 -90 17 1 15 3
-6 9 -97 29 -178 131 -213 268 -14 53 -15 54 -10 12z"/>
<path d="M772 580 c0 -14 2 -19 5 -12 2 6 2 18 0 25 -3 6 -5 1 -5 -13z"/>
<path d="M852 542 c-27 -130 -122 -266 -223 -318 l-44 -22 35 2 c23 2 34 7 32
15 -2 8 3 11 12 8 35 -13 174 151 159 189 -4 12 -3 15 5 10 8 -5 10 -1 5 10
-4 11 -3 15 4 11 15 -9 34 49 27 82 -4 20 -3 23 5 11 10 -13 11 -13 10 0 -1 8
-4 26 -8 39 -5 19 -9 12 -19 -37z m-41 -155 c-10 -9 -11 -8 -5 6 3 10 9 15 12
12 3 -3 0 -11 -7 -18z m-17 -29 c-21 -36 -69 -90 -97 -110 -23 -15 -19 -9 14
23 25 24 54 56 64 72 17 26 33 39 19 15z"/>
<path d="M127 548 c-4 -14 -3 -37 2 -50 8 -21 8 -22 14 -3 4 11 3 34 -1 50
l-9 30 -6 -27z"/>
<path d="M403 560 c2 -10 17 -15 43 -16 37 -1 38 -1 4 3 -19 3 -39 10 -43 16
-6 8 -7 7 -4 -3z"/>
<path d="M624 538 c19 -33 20 -42 4 -32 -9 6 -9 3 0 -9 9 -11 11 -27 7 -48 -6
-24 -9 -28 -17 -18 -8 12 -9 11 -5 -1 6 -20 -11 -52 -23 -45 -6 3 -7 -1 -4 -9
8 -22 9 -21 35 20 31 50 34 112 7 144 l-20 25 16 -27z"/>
<path d="M742 491 c-36 -94 -109 -167 -192 -192 -20 -6 -21 -7 -5 -8 11 0 31
6 45 14 31 18 41 19 35 3 -7 -20 20 -49 39 -42 9 3 16 11 16 16 0 6 -8 4 -17
-3 -15 -12 -16 -12 -10 3 4 13 2 15 -11 11 -14 -6 -15 -4 -4 9 7 9 9 18 3 20
-5 1 13 27 41 57 27 30 49 48 48 40 -5 -30 1 -39 25 -39 20 0 25 5 24 23 -1
16 -2 18 -6 5 -5 -19 -28 -24 -38 -9 -3 5 0 13 6 17 8 5 8 8 0 13 -8 5 -5 21
9 55 12 26 20 51 18 57 -2 5 -13 -18 -26 -50z"/>
<path d="M40 510 c-9 -6 -10 -10 -3 -10 6 0 15 5 18 10 8 12 4 12 -15 0z"/>
<path d="M471 504 c0 -11 3 -14 6 -6 3 7 2 16 -1 19 -3 4 -6 -2 -5 -13z"/>
<path d="M947 509 c7 -7 15 -10 18 -7 3 3 -2 9 -12 12 -14 6 -15 5 -6 -5z"/>
<path d="M7 479 c-10 -36 -9 -57 2 -41 4 8 11 13 15 13 8 -1 7 4 -3 31 -8 21
-8 21 -14 -3z"/>
<path d="M573 485 c1 -5 -5 -8 -13 -7 -8 2 -11 0 -7 -4 4 -5 24 -9 42 -9 30
-1 40 8 14 11 -22 3 -23 5 -9 14 12 7 10 9 -7 7 -12 0 -21 -6 -20 -12z"/>
<path d="M977 479 c-8 -31 -8 -29 -1 -28 4 0 11 -5 15 -13 11 -17 11 18 0 46
-7 18 -8 18 -14 -5z"/>
<path d="M147 476 c-8 -21 2 -48 16 -39 6 4 8 0 4 -11 -5 -11 -3 -15 4 -10 7
4 10 1 7 -7 -17 -46 155 -227 193 -203 8 4 9 3 5 -4 -4 -7 -19 -12 -33 -12
-15 0 -24 -2 -22 -5 3 -2 61 -6 130 -9 89 -3 117 -1 99 6 -14 5 -50 7 -80 4
-30 -3 -49 -2 -43 2 7 5 -8 15 -39 26 -72 25 -154 110 -200 204 -24 49 -37 68
-41 58z m123 -191 l44 -50 -45 42 c-24 24 -53 57 -62 75 -17 32 -17 32 0 8 10
-14 38 -47 63 -75z"/>
<path d="M54 456 c-9 -20 -9 -23 2 -19 8 3 14 14 14 24 0 25 -3 24 -16 -5z"/>
<path d="M194 466 c-7 -18 3 -36 19 -35 9 0 9 2 0 6 -7 2 -13 11 -13 19 0 16
36 19 43 4 3 -6 4 -5 3 2 -4 19 -45 22 -52 4z"/>
<path d="M499 463 c-13 -16 -12 -17 4 -4 9 7 17 15 17 17 0 8 -8 3 -21 -13z"/>
<path d="M760 462 c0 -5 9 -17 20 -27 22 -20 28 -8 8 14 -7 8 -8 11 -3 8 6 -3
17 -2 25 4 11 6 6 9 -17 9 -18 0 -33 -4 -33 -8z"/>
<path d="M431 436 c-17 -19 -20 -26 -9 -32 7 -4 10 -3 5 1 -4 5 3 19 15 32 12
13 19 23 16 23 -2 0 -15 -11 -27 -24z"/>
<path d="M930 451 c0 -6 6 -11 13 -11 8 0 7 -4 -3 -10 -9 -6 -10 -10 -3 -10
19 0 24 17 8 30 -10 9 -15 9 -15 1z"/>
<path d="M570 446 c0 -2 8 -10 18 -17 15 -13 16 -12 3 4 -13 16 -21 21 -21 13z"/>
<path d="M227 417 c-16 -11 -16 -14 -3 -32 14 -19 15 -19 9 5 -6 23 -5 24 10
11 16 -12 17 -12 10 5 -6 17 -5 17 10 5 15 -12 17 -12 11 3 -7 19 -24 21 -47
3z"/>
<path d="M500 416 c0 -3 9 -10 20 -16 11 -6 20 -8 20 -6 0 3 -9 10 -20 16 -11
6 -20 8 -20 6z"/>
<path d="M550 416 c0 -2 9 -6 20 -9 11 -3 18 -1 14 4 -5 9 -34 13 -34 5z"/>
<path d="M113 394 c19 -23 21 -42 8 -62 -7 -11 -17 -9 -49 12 -22 14 -45 33
-51 43 -13 23 -14 8 -1 -16 5 -10 23 -24 39 -31 37 -15 47 -38 24 -56 -10 -7
-21 -14 -25 -14 -4 0 -13 -10 -19 -22 -11 -21 -9 -21 17 3 16 15 39 32 52 38
12 7 20 15 18 19 -3 5 -1 14 3 20 5 8 8 -2 9 -24 1 -20 4 -40 8 -43 4 -3 4 21
1 53 -4 44 -12 65 -29 80 l-22 21 17 -21z"/>
<path d="M876 391 c-16 -18 -37 -144 -22 -130 4 3 7 23 8 43 1 22 4 32 9 24 4
-6 6 -15 3 -20 -2 -4 6 -12 18 -19 37 -18 78 -61 78 -80 0 -45 -10 -50 -48
-21 -21 15 -43 34 -50 42 -12 13 -12 13 -5 -2 4 -9 27 -31 51 -48 25 -18 40
-35 36 -42 -4 -7 -3 -8 5 -4 6 4 9 11 7 15 -3 4 0 13 6 21 8 13 9 13 5 0 -2
-8 0 -24 5 -35 5 -13 6 -1 3 34 -5 48 -28 101 -44 101 -3 0 -14 7 -24 14 -23
18 -13 41 24 56 16 7 34 21 39 31 13 24 12 39 -1 16 -6 -10 -29 -29 -51 -43
-32 -21 -42 -23 -49 -12 -13 20 -11 40 8 60 9 10 14 18 11 18 -3 0 -13 -9 -22
-19z"/>
<path d="M265 369 c-16 -19 -17 -21 -2 -10 17 13 18 12 11 -13 -7 -28 -7 -28
19 -12 32 22 47 3 20 -26 l-18 -22 27 20 c24 18 25 20 10 37 -9 10 -21 16 -28
13 -7 -3 -14 4 -16 16 -3 20 -3 20 -23 -3z"/>
<path d="M722 364 c10 -10 20 -16 22 -13 3 3 -5 11 -17 18 -21 13 -21 12 -5
-5z"/>
<path d="M474 362 c3 -6 -2 -13 -11 -15 -16 -4 -16 -5 -1 -6 21 -1 32 15 17
25 -7 4 -9 3 -5 -4z"/>
<path d="M671 347 c-8 -11 -6 -18 10 -33 15 -14 20 -15 17 -4 -2 10 3 14 15
12 17 -3 17 -2 0 17 -21 25 -27 26 -42 8z m29 -7 c0 -5 -4 -10 -10 -10 -5 0
-10 5 -10 10 0 6 5 10 10 10 6 0 10 -4 10 -10z"/>
<path d="M353 298 c-6 -7 -14 -20 -18 -28 -8 -13 -7 -13 8 -1 15 12 17 11 17
-2 0 -9 5 -19 12 -23 7 -5 9 -2 5 9 -3 9 1 18 10 21 12 5 13 9 3 21 -15 18
-25 19 -37 3z m27 -8 c0 -5 -4 -10 -10 -10 -5 0 -10 5 -10 10 0 6 5 10 10 10
6 0 10 -4 10 -10z"/>
<path d="M600 285 c0 -11 -5 -27 -11 -35 -9 -13 -10 -12 -5 2 3 10 1 20 -5 24
-16 9 -22 -3 -11 -22 13 -23 42 -27 42 -6 0 15 2 15 10 2 15 -24 11 2 -5 30
-13 22 -14 23 -15 5z"/>
<path d="M488 283 c6 -2 18 -2 25 0 6 3 1 5 -13 5 -14 0 -19 -2 -12 -5z"/>
<path d="M407 274 c-10 -10 -9 -42 2 -48 18 -11 42 6 39 28 -3 21 -28 33 -41
20z m31 -21 c-5 -25 -28 -28 -28 -4 0 12 6 21 16 21 9 0 14 -7 12 -17z"/>
<path d="M520 256 c0 -8 -3 -23 -7 -33 -6 -16 -5 -16 10 -5 9 8 21 11 27 7 13
-8 13 1 0 26 -12 22 -30 25 -30 5z"/>
<path d="M123 227 c-4 -6 -25 -25 -46 -40 l-37 -28 -7 33 c-7 32 -7 32 -14 8
-4 -14 -7 -38 -7 -55 -1 -25 1 -27 7 -10 5 11 6 27 4 35 -4 13 -3 13 5 0 6 -8
9 -17 6 -21 -2 -4 1 -11 7 -15 8 -4 9 -3 5 4 -4 7 11 24 36 42 24 17 47 38 51
46 10 17 1 19 -10 1z"/>
<path d="M565 190 c21 -9 122 -13 114 -5 -3 2 -34 6 -70 9 -40 3 -56 1 -44 -4z"/>
<path d="M268 173 c7 -3 16 -2 19 1 4 3 -2 6 -13 5 -11 0 -14 -3 -6 -6z"/>
<path d="M718 173 c7 -3 16 -2 19 1 4 3 -2 6 -13 5 -11 0 -14 -3 -6 -6z"/>
<path d="M231 156 c-17 -20 -1 -27 48 -22 35 4 40 2 30 -10 -6 -8 -21 -15 -33
-15 -17 -1 -18 -2 -3 -6 15 -4 16 -7 5 -21 -11 -15 -11 -15 3 -5 9 7 20 9 24
5 5 -4 5 -1 1 6 -4 7 2 23 13 38 l20 25 4 -26 c4 -24 4 -24 3 2 -1 27 -2 28
-55 24 -37 -2 -51 0 -47 8 10 16 1 14 -13 -3z"/>
<path d="M756 159 c4 -8 -10 -10 -47 -8 -54 4 -54 4 -56 -26 l-2 -30 9 30 c4
17 8 26 9 20 1 -12 91 -14 91 -2 0 4 6 5 13 1 8 -5 8 -2 -2 9 -15 19 -26 23
-15 6z"/>
<path d="M67 119 c7 -7 15 -10 18 -7 3 3 -2 9 -12 12 -14 6 -15 5 -6 -5z"/>
<path d="M500 120 c0 -5 5 -10 11 -10 5 0 7 5 4 10 -3 6 -8 10 -11 10 -2 0 -4
-4 -4 -10z"/>
<path d="M920 120 c-9 -6 -10 -10 -3 -10 6 0 15 5 18 10 8 12 4 12 -15 0z"/>
<path d="M50 100 c0 -7 21 -16 58 -25 6 -2 12 1 12 7 0 6 -7 8 -15 4 -8 -3
-15 -2 -15 3 0 5 -9 11 -20 14 -11 3 -20 2 -20 -3z"/>
<path d="M108 103 c7 -3 16 -2 19 1 4 3 -2 6 -13 5 -11 0 -14 -3 -6 -6z"/>
<path d="M775 101 c2 -2 0 -12 -6 -22 -6 -13 -6 -19 1 -19 5 0 10 8 11 18 0
14 2 14 7 2 9 -20 32 -24 32 -5 0 8 5 15 10 15 6 0 10 -7 10 -15 0 -8 8 -15
18 -14 10 0 12 3 5 6 -7 2 -13 11 -13 18 0 8 -15 14 -39 17 -22 2 -38 2 -36
-1z"/>
<path d="M877 104 c7 -3 10 -11 7 -18 -3 -7 1 -13 9 -13 9 0 12 7 9 19 -2 10
-12 18 -21 17 -9 0 -11 -3 -4 -5z"/>
<path d="M141 87 c-11 -14 -5 -27 13 -27 6 0 4 4 -3 9 -12 8 -10 11 10 14 43
9 73 6 81 -6 5 -8 8 -6 8 6 0 14 -9 17 -49 17 -28 0 -53 -6 -60 -13z"/>
<path d="M448 93 c28 -2 76 -2 105 0 28 2 5 3 -53 3 -58 0 -81 -1 -52 -3z"/>
<path d="M711 84 c0 -11 3 -14 6 -6 3 7 2 16 -1 19 -3 4 -6 -2 -5 -13z"/>
<path d="M23 75 c2 -21 61 -65 86 -64 9 0 0 7 -20 15 -29 12 -36 20 -33 37 4
21 4 21 -5 2 -9 -19 -9 -19 -20 5 -8 18 -10 20 -8 5z"/>
<path d="M338 68 c-2 -12 -9 -23 -17 -26 -8 -3 -11 0 -7 6 3 6 2 13 -3 17 -6
3 -8 -3 -6 -15 2 -12 -1 -20 -10 -20 -8 0 -13 6 -11 13 1 6 1 9 -1 5 -2 -4
-11 -4 -19 -1 -8 3 -14 0 -14 -5 0 -6 6 -12 13 -15 6 -2 4 -3 -5 -2 -10 2 -18
-2 -18 -7 0 -14 57 -2 87 17 13 9 23 22 23 30 0 7 10 16 23 18 19 4 19 4 -5 6
-20 1 -27 -4 -30 -21z"/>
<path d="M625 83 c11 -3 23 -10 27 -17 5 -7 8 -5 8 7 0 12 -7 17 -27 16 -22
-1 -23 -2 -8 -6z"/>
<path d="M971 80 c-2 -27 -22 -41 -39 -27 -12 9 -16 9 -19 -1 -3 -6 -9 -10
-14 -6 -13 8 -50 -6 -44 -17 4 -5 14 -5 25 1 13 7 21 7 25 0 3 -5 -2 -10 -12
-11 -10 0 -13 -3 -6 -5 14 -6 64 19 82 40 7 8 11 21 8 28 -4 9 -6 8 -6 -2z"/>
<path d="M101 44 c0 -11 3 -14 6 -6 3 7 2 16 -1 19 -3 4 -6 -2 -5 -13z"/>
<path d="M141 34 c0 -11 3 -14 6 -6 3 7 2 16 -1 19 -3 4 -6 -2 -5 -13z"/>
<path d="M220 35 c0 -19 6 -19 14 0 3 8 1 15 -4 15 -6 0 -10 -7 -10 -15z"/>
<path d="M667 39 c7 -7 15 -10 18 -7 3 3 -2 9 -12 12 -14 6 -15 5 -6 -5z"/>
<path d="M720 40 c0 -6 -4 -8 -10 -5 -5 3 -10 2 -10 -3 0 -15 30 -23 100 -27
36 -1 53 -1 38 2 -17 3 -28 11 -29 21 0 14 -1 14 -8 -2 -7 -17 -8 -17 -23 -2
-11 10 -18 12 -20 5 -3 -8 -10 -6 -21 5 -9 10 -17 12 -17 6z"/>
<path d="M153 3 c15 -2 39 -2 55 0 15 2 2 4 -28 4 -30 0 -43 -2 -27 -4z"/>
</g>
</svg>
